<?xml version="1.0" encoding="UTF-8" standalone="no"?>
<!-- Generator: Gravit.io -->
<svg xmlns="http://www.w3.org/2000/svg" xmlns:xlink="http://www.w3.org/1999/xlink" style="isolation:isolate" viewBox="297.5 216.5 405 121.637" width="405" height="121.637"><rect x="436" y="217" width="125" height="84" transform="matrix(1,0,0,1,0,0)" fill="rgb(74,145,255)" vector-effect="non-scaling-stroke" stroke-width="1" stroke="rgb(0,0,0)" stroke-linejoin="round" stroke-linecap="square" stroke-miterlimit="3"/><g transform="matrix(1,0,0,1,457,245.382)"><text transform="matrix(1,0,0,1,0,19.668)" style="font-family:&quot;Merriweather Sans&quot;;font-weight:400;font-size:20px;font-style:normal;fill:#000000;stroke:none;">Function</text></g><path d=" M 561 259 L 561 272.618 L 561 277.968 Q 576.6 277.9 609 301 L 609 272.618 L 609 259 L 609 244 L 609 217 Q 576.6 240.1 561 240.032 L 561 244 L 561 259 Z " fill="rgb(163,204,39)" vector-effect="non-scaling-stroke" stroke-width="1" stroke="rgb(0,0,0)" stroke-linejoin="round" stroke-linecap="square" stroke-miterlimit="3"/><path d=" M 436 259 L 436 272.618 L 436 277.968 Q 420.4 277.9 388 301 L 388 272.618 L 388 259 L 388 244 L 388 217 Q 420.4 240.1 436 240.032 L 436 244 L 436 259 Z " fill="rgb(255,119,100)" vector-effect="non-scaling-stroke" stroke-width="1" stroke="rgb(0,0,0)" stroke-linejoin="round" stroke-linecap="square" stroke-miterlimit="3"/><line x1="298.5" y1="301" x2="701.5" y2="301" vector-effect="non-scaling-stroke" stroke-width="2" stroke="rgb(0,0,0)" stroke-linejoin="round" stroke-linecap="round" stroke-miterlimit="3"/><rect x="323" y="264" width="36" height="36" transform="matrix(1,0,0,1,0,0)" fill="rgb(235,235,235)" vector-effect="non-scaling-stroke" stroke-width="1" stroke="rgb(0,0,0)" stroke-linejoin="miter" stroke-linecap="square" stroke-miterlimit="3"/><g transform="matrix(1,0,0,1,314,313)"><text transform="matrix(1,0,0,1,0,19.668)" style="font-family:&quot;Merriweather Sans&quot;;font-weight:400;font-size:20px;font-style:normal;fill:#000000;stroke:none;">Input</text></g><rect x="637" y="264" width="36" height="36" transform="matrix(1,0,0,1,0,0)" fill="rgb(235,235,235)" vector-effect="non-scaling-stroke" stroke-width="1" stroke="rgb(0,0,0)" stroke-linejoin="miter" stroke-linecap="square" stroke-miterlimit="3"/><g transform="matrix(1,0,0,1,619.5,313)"><text transform="matrix(1,0,0,1,0,19.668)" style="font-family:&quot;Merriweather Sans&quot;;font-weight:400;font-size:20px;font-style:normal;fill:#000000;stroke:none;">Output</text></g><g transform="matrix(1,0,0,1,334.5,270.519)"><text transform="matrix(1,0,0,1,0.388,19.668)" style="font-family:&quot;Merriweather Sans&quot;;font-weight:400;font-size:20px;font-style:normal;fill:#000000;stroke:none;">?</text></g><g transform="matrix(1,0,0,1,649,269.432)"><text transform="matrix(1,0,0,1,1.972,19.668)" style="font-family:&quot;Merriweather Sans&quot;;font-weight:400;font-size:20px;font-style:italic;fill:#000000;stroke:none;">f</text></g></svg>