<?xml version="1.0" standalone="no"?><!-- Generator: Gravit.io --><svg xmlns="http://www.w3.org/2000/svg" xmlns:xlink="http://www.w3.org/1999/xlink" style="isolation:isolate" viewBox="0 0 300.02 247.355" width="300.02" height="247.355"><defs><clipPath id="_clipPath_nc6olUMoSDU5bqg56CYDk6bcWyWYuRfg"><rect width="300.02" height="247.355"/></clipPath></defs><g clip-path="url(#_clipPath_nc6olUMoSDU5bqg56CYDk6bcWyWYuRfg)"><line x1="140.02" y1="138.885" x2="280.02" y2="219.714" vector-effect="non-scaling-stroke" stroke-width="1" stroke="rgb(0,0,0)" stroke-linejoin="miter" stroke-linecap="square" stroke-miterlimit="3"/><path d=" M 269.725 219.544 L 280.886 220.214 L 274.725 210.883" fill="none" stroke="rgb(0,0,0)" stroke-width="1"/><line x1="140.02" y1="138.885" x2="140.02" y2="23.415" vector-effect="non-scaling-stroke" stroke-width="1" stroke="rgb(0,0,0)" stroke-linejoin="miter" stroke-linecap="square" stroke-miterlimit="3"/><path d=" M 145.02 32.415 L 140.02 22.415 L 135.02 32.415" fill="none" stroke="rgb(0,0,0)" stroke-width="1"/><line x1="20.02" y1="208.167" x2="140.02" y2="138.885" vector-effect="non-scaling-stroke" stroke-width="1" stroke="rgb(0,0,0)" stroke-linejoin="miter" stroke-linecap="square" stroke-miterlimit="3"/><path d=" M 25.314 199.336 L 19.154 208.667 L 30.314 207.997" fill="none" stroke="rgb(0,0,0)" stroke-width="1"/><g transform="matrix(1,0,0,1,280.02,212.714)"><text transform="matrix(1,0,0,1,4.166,15.576)" style="font-family:&quot;Cambria Math&quot;;font-weight:400;font-size:20px;font-style:normal;fill:#000000;stroke:none;">x</text></g><g transform="matrix(1,0,0,1,0.02,202.393)"><text transform="matrix(1,0,0,1,3.98,15.576)" style="font-family:&quot;Cambria Math&quot;;font-weight:400;font-size:20px;font-style:normal;fill:#000000;stroke:none;">y</text></g><g transform="matrix(1,0,0,1,130.02,0)"><text transform="matrix(1,0,0,1,4.454,15.576)" style="font-family:&quot;Cambria Math&quot;;font-weight:400;font-size:20px;font-style:normal;fill:#000000;stroke:none;">z</text></g><g style="isolation:isolate" id="Box"><path d=" M 60.02 185.073 L 140.02 231.261 L 220.02 185.073 L 140.02 138.885 L 60.02 185.073 Z " fill="rgb(100,188,255)" fill-opacity="0.8" vector-effect="non-scaling-stroke" stroke-width="1" stroke-dasharray="10,10,10,10" stroke="rgb(0,0,0)" stroke-linejoin="miter" stroke-linecap="square" stroke-miterlimit="3"/><path d=" M 60.02 92.697 L 140.02 46.509 L 220.02 92.697 L 140.02 138.885 L 60.02 92.697 Z " fill="rgb(100,188,255)" fill-opacity="0.8" vector-effect="non-scaling-stroke" stroke-width="1" stroke-dasharray="10,10,10,10" stroke="rgb(0,0,0)" stroke-linejoin="miter" stroke-linecap="square" stroke-miterlimit="3"/><path d=" M 60.02 92.697 L 60.02 185.073 L 140.02 231.261 L 140.02 138.885 L 60.02 92.697 Z " fill="rgb(100,188,255)" fill-opacity="0.8" vector-effect="non-scaling-stroke" stroke-width="1" stroke-dasharray="10,10,10,10" stroke="rgb(0,0,0)" stroke-linejoin="miter" stroke-linecap="square" stroke-miterlimit="3"/><path d=" M 220.02 92.697 L 220.02 185.073 L 140.02 231.261 L 140.02 138.885 L 220.02 92.697 Z " fill="rgb(100,188,255)" fill-opacity="0.8" vector-effect="non-scaling-stroke" stroke-width="1" stroke-dasharray="10,10,10,10" stroke="rgb(0,0,0)" stroke-linejoin="miter" stroke-linecap="square" stroke-miterlimit="3"/></g><g transform="matrix(1,0,0,1,151.02,179.299)"><text transform="matrix(1,0,0,1,0,15.576)" style="font-family:&quot;Cambria Math&quot;;font-weight:400;font-size:20px;font-style:normal;fill:#000000;stroke:none;">V = 0</text></g><g transform="matrix(1,0,0,1,238.02,59.593)"><text transform="matrix(1,0,0,1,0,15.576)" style="font-family:&quot;Cambria Math&quot;;font-weight:400;font-size:20px;font-style:normal;fill:#000000;stroke:none;">ψ = 0</text></g></g></svg>