<?xml version="1.0" standalone="no"?><!-- Generator: Gravit.io --><svg xmlns="http://www.w3.org/2000/svg" xmlns:xlink="http://www.w3.org/1999/xlink" style="isolation:isolate" viewBox="0 0 413.797 302.5" width="413.797" height="302.5"><defs><clipPath id="_clipPath_WvHvY44tICjmrYgquHwgXZGsfAeRYg1Z"><rect width="413.797" height="302.5"/></clipPath></defs><g clip-path="url(#_clipPath_WvHvY44tICjmrYgquHwgXZGsfAeRYg1Z)"><path d=" M 73.797 270 L 113.797 270 L 123.797 290 L 133.797 250 L 143.797 290 L 153.797 250 L 163.797 290 L 173.797 250 L 183.797 270 L 183.797 270 L 183.797 270 L 193.797 270 L 193.797 270 L 193.797 270" fill="none" vector-effect="non-scaling-stroke" stroke-width="2" stroke="rgb(0,0,0)" stroke-linejoin="miter" stroke-linecap="square" stroke-miterlimit="3"/><rect x="193.797" y="240" width="60" height="60" transform="matrix(1,0,0,1,0,0)" fill="rgb(65,172,84)" vector-effect="non-scaling-stroke" stroke-width="1" stroke="rgb(0,0,0)" stroke-linejoin="miter" stroke-linecap="square" stroke-miterlimit="3"/><g id="Pendulum"><rect x="1.746" y="27.059" width="58.193" height="58.193" transform="matrix(1,0,0,1,0,0)" fill="rgb(235,235,235)" vector-effect="non-scaling-stroke" stroke-width="1.164" stroke="rgb(0,0,0)" stroke-linejoin="miter" stroke-linecap="square" stroke-miterlimit="3"/><path d=" M 22.113 56.155 C 22.113 51.338 26.025 47.426 30.842 47.426 C 35.66 47.426 39.571 51.338 39.571 56.155 C 39.571 60.973 35.66 64.884 30.842 64.884 C 26.025 64.884 22.113 60.973 22.113 56.155 Z " fill="rgb(159,157,157)" vector-effect="non-scaling-stroke" stroke-width="1.164" stroke="rgb(159,157,157)" stroke-linejoin="miter" stroke-linecap="square" stroke-miterlimit="3"/><g id="Pendulum Realistic"><rect x="78.446" y="41.527" width="9.893" height="151.303" transform="matrix(0.764,-0.645,0.645,0.764,-55.898,81.355)" fill="rgb(164,106,56)" vector-effect="non-scaling-stroke" stroke-width="1.164" stroke="rgb(0,0,0)" stroke-linejoin="round" stroke-linecap="round" stroke-miterlimit="3"/><path d=" M 123.262 182.515 C 119.121 177.605 119.746 170.256 124.657 166.115 C 129.568 161.974 136.917 162.599 141.058 167.51 C 145.198 172.42 144.573 179.769 139.663 183.91 C 134.752 188.051 127.403 187.426 123.262 182.515 Z " fill="rgb(154,154,244)" vector-effect="non-scaling-stroke" stroke-width="1.164" stroke="rgb(0,0,0)" stroke-linejoin="miter" stroke-linecap="square" stroke-miterlimit="3"/></g><line x1="30.842" y1="61.975" x2="30.842" y2="190" vector-effect="non-scaling-stroke" stroke-width="1.164" stroke-dasharray="5,5,5,5" stroke="rgb(0,0,0)" stroke-opacity="0.5" stroke-linejoin="miter" stroke-linecap="square" stroke-miterlimit="3"/><path d=" M 30.842 143.445 Q 60.521 151.36 77.397 120.168" fill="none" vector-effect="non-scaling-stroke" stroke-width="1.164" stroke="rgb(0,0,0)" stroke-linejoin="miter" stroke-linecap="square" stroke-miterlimit="3"/><path d=" M 77.515 131.2 L 77.955 119.147 L 68.048 126.027" fill="none" stroke="rgb(0,0,0)" stroke-width="1.1638661319263985"/><g transform="matrix(1.164,0,0,1.164,47.719,112.021)"><text transform="matrix(1,0,0,1,0,19.004)" style="font-family:&quot;Cambria&quot;;font-weight:400;font-size:20px;font-style:normal;fill:#000000;stroke:none;">θ</text></g></g><g id="Particle in a Box"><line x1="296.463" y1="101.849" x2="399.13" y2="161.123" vector-effect="non-scaling-stroke" stroke-width="0.733" stroke="rgb(0,0,0)" stroke-linejoin="miter" stroke-linecap="square" stroke-miterlimit="3"/><path d=" M 391.412 160.901 L 399.596 161.392 L 395.078 154.55" fill="none" stroke="rgb(0,0,0)" stroke-width="0.7333333333333334"/><line x1="296.463" y1="101.849" x2="296.463" y2="17.171" vector-effect="non-scaling-stroke" stroke-width="0.733" stroke="rgb(0,0,0)" stroke-linejoin="miter" stroke-linecap="square" stroke-miterlimit="3"/><path d=" M 300.13 23.966 L 296.463 16.633 L 292.797 23.966" fill="none" stroke="rgb(0,0,0)" stroke-width="0.7333333333333334"/><line x1="208.463" y1="152.656" x2="296.463" y2="101.849" vector-effect="non-scaling-stroke" stroke-width="0.733" stroke="rgb(0,0,0)" stroke-linejoin="miter" stroke-linecap="square" stroke-miterlimit="3"/><path d=" M 212.515 146.082 L 207.998 152.924 L 216.182 152.433" fill="none" stroke="rgb(0,0,0)" stroke-width="0.7333333333333334"/><g transform="matrix(0.733,0,0,0.733,399.13,155.99)"><text transform="matrix(1,0,0,1,4.166,15.576)" style="font-family:&quot;Cambria Math&quot;;font-weight:400;font-size:20px;font-style:normal;fill:#000000;stroke:none;">x</text></g><g transform="matrix(0.733,0,0,0.733,193.797,148.422)"><text transform="matrix(1,0,0,1,3.98,15.576)" style="font-family:&quot;Cambria Math&quot;;font-weight:400;font-size:20px;font-style:normal;fill:#000000;stroke:none;">y</text></g><g transform="matrix(0.733,0,0,0.733,289.13,0)"><text transform="matrix(1,0,0,1,4.454,15.576)" style="font-family:&quot;Cambria Math&quot;;font-weight:400;font-size:20px;font-style:normal;fill:#000000;stroke:none;">z</text></g><path d=" M 237.797 135.72 L 296.463 169.591 L 355.13 135.72 L 296.463 101.849 L 237.797 135.72 Z " fill="rgb(100,188,255)" fill-opacity="0.8" vector-effect="non-scaling-stroke" stroke-width="0.733" stroke-dasharray="10,10,10,10" stroke="rgb(0,0,0)" stroke-linejoin="miter" stroke-linecap="square" stroke-miterlimit="3"/><path d=" M 237.797 67.977 L 296.463 34.106 L 355.13 67.977 L 296.463 101.849 L 237.797 67.977 Z " fill="rgb(100,188,255)" fill-opacity="0.8" vector-effect="non-scaling-stroke" stroke-width="0.733" stroke-dasharray="10,10,10,10" stroke="rgb(0,0,0)" stroke-linejoin="miter" stroke-linecap="square" stroke-miterlimit="3"/><path d=" M 237.797 67.977 L 237.797 135.72 L 296.463 169.591 L 296.463 101.849 L 237.797 67.977 Z " fill="rgb(100,188,255)" fill-opacity="0.8" vector-effect="non-scaling-stroke" stroke-width="0.733" stroke-dasharray="10,10,10,10" stroke="rgb(0,0,0)" stroke-linejoin="miter" stroke-linecap="square" stroke-miterlimit="3"/><path d=" M 355.13 67.977 L 355.13 135.72 L 296.463 169.591 L 296.463 101.849 L 355.13 67.977 Z " fill="rgb(100,188,255)" fill-opacity="0.8" vector-effect="non-scaling-stroke" stroke-width="0.733" stroke-dasharray="10,10,10,10" stroke="rgb(0,0,0)" stroke-linejoin="miter" stroke-linecap="square" stroke-miterlimit="3"/><g transform="matrix(0.733,0,0,0.733,304.53,131.486)"><text transform="matrix(1,0,0,1,0,15.576)" style="font-family:&quot;Cambria Math&quot;;font-weight:400;font-size:20px;font-style:normal;fill:#000000;stroke:none;">V = 0</text></g><g transform="matrix(0.733,0,0,0.733,368.33,43.701)"><text transform="matrix(1,0,0,1,0,15.576)" style="font-family:&quot;Cambria Math&quot;;font-weight:400;font-size:20px;font-style:normal;fill:#000000;stroke:none;">ψ = 0</text></g></g><line x1="73.797" y1="240" x2="73.797" y2="300" vector-effect="non-scaling-stroke" stroke-width="5" stroke="rgb(0,0,0)" stroke-linejoin="miter" stroke-linecap="round" stroke-miterlimit="3"/><line x1="73.797" y1="300" x2="313.797" y2="300" vector-effect="non-scaling-stroke" stroke-width="5" stroke="rgb(0,0,0)" stroke-linejoin="miter" stroke-linecap="round" stroke-miterlimit="3"/><g transform="matrix(1,0,0,1,143.797,230)"><text transform="matrix(1,0,0,1,0.098,15.576)" style="font-family:&quot;Cambria Math&quot;;font-weight:400;font-size:20px;font-style:normal;fill:#000000;stroke:none;">k</text></g><line x1="263.797" y1="270" x2="313.797" y2="270" vector-effect="non-scaling-stroke" stroke-width="1" stroke="rgb(0,0,0)" stroke-linejoin="miter" stroke-linecap="square" stroke-miterlimit="3"/><path d=" M 309.297 275 L 319.297 270 L 309.297 265 Z " fill="rgb(0,0,0)" stroke="none"/><g transform="matrix(1,0,0,1,283.797,250)"><text transform="matrix(1,0,0,1,0.02,15.576)" style="font-family:&quot;Cambria Math&quot;;font-weight:400;font-size:20px;font-style:normal;fill:#000000;stroke:none;">v</text></g></g></svg>