<?xml version="1.0" standalone="no"?><!-- Generator: Gravit.io --><svg xmlns="http://www.w3.org/2000/svg" xmlns:xlink="http://www.w3.org/1999/xlink" style="isolation:isolate" viewBox="0 0 427 240" width="427" height="240"><defs><clipPath id="_clipPath_iXAOWvFzjSspFyd77ZBK6maZ2uYnE1de"><rect width="427" height="240"/></clipPath></defs><g clip-path="url(#_clipPath_iXAOWvFzjSspFyd77ZBK6maZ2uYnE1de)"><g transform="matrix(1,0,0,1,0,0)"><text transform="matrix(1,0,0,1,0,19.004)" style="font-family:&quot;Cambria&quot;;font-weight:400;font-size:20px;font-style:normal;fill:#000000;stroke:none;">Realistic Pendulum</text></g><g transform="matrix(1,0,0,1,240,0)"><text transform="matrix(1,0,0,1,0,19.004)" style="font-family:&quot;Cambria&quot;;font-weight:400;font-size:20px;font-style:normal;fill:#000000;stroke:none;">Unrealistic Pendulum</text></g><rect x="55" y="40" width="50" height="50" transform="matrix(1,0,0,1,0,0)" fill="rgb(235,235,235)" vector-effect="non-scaling-stroke" stroke-width="1" stroke="rgb(0,0,0)" stroke-linejoin="miter" stroke-linecap="square" stroke-miterlimit="3"/><path d=" M 72.5 65 C 72.5 60.861 75.861 57.5 80 57.5 C 84.139 57.5 87.5 60.861 87.5 65 C 87.5 69.139 84.139 72.5 80 72.5 C 75.861 72.5 72.5 69.139 72.5 65 Z " fill="rgb(159,157,157)" vector-effect="non-scaling-stroke" stroke-width="1" stroke="rgb(159,157,157)" stroke-linejoin="miter" stroke-linecap="square" stroke-miterlimit="3"/><g id="Pendulum Realistic"><rect x="120.901" y="52.431" width="8.5" height="130" transform="matrix(0.764,-0.645,0.645,0.764,-46.226,108.334)" fill="rgb(164,106,56)" vector-effect="non-scaling-stroke" stroke-width="1" stroke="rgb(0,0,0)" stroke-linejoin="round" stroke-linecap="round" stroke-miterlimit="3"/><path d=" M 159.408 173.569 C 155.85 169.35 156.387 163.036 160.606 159.478 C 164.825 155.92 171.14 156.457 174.697 160.676 C 178.255 164.896 177.718 171.21 173.499 174.768 C 169.28 178.325 162.966 177.788 159.408 173.569 Z " fill="rgb(154,154,244)" vector-effect="non-scaling-stroke" stroke-width="1" stroke="rgb(0,0,0)" stroke-linejoin="miter" stroke-linecap="square" stroke-miterlimit="3"/></g><line x1="80" y1="70" x2="80" y2="180" vector-effect="non-scaling-stroke" stroke-width="1" stroke-dasharray="5,5,5,5" stroke="rgb(0,0,0)" stroke-opacity="0.5" stroke-linejoin="miter" stroke-linecap="square" stroke-miterlimit="3"/><path d=" M 80 140 Q 105.5 146.8 120 120" fill="none" vector-effect="non-scaling-stroke" stroke-width="1" stroke="rgb(0,0,0)" stroke-linejoin="miter" stroke-linecap="square" stroke-miterlimit="3"/><path d=" M 120.071 130.295 L 120.48 119.122 L 111.296 125.5" fill="none" stroke="rgb(0,0,0)" stroke-width="1"/><g transform="matrix(1,0,0,1,94.5,113)"><text transform="matrix(1,0,0,1,0,19.004)" style="font-family:&quot;Cambria&quot;;font-weight:400;font-size:20px;font-style:normal;fill:#000000;stroke:none;">θ</text></g><rect x="308.5" y="40" width="50" height="50" transform="matrix(1,0,0,1,0,0)" fill="rgb(235,235,235)" vector-effect="non-scaling-stroke" stroke-width="1" stroke="rgb(0,0,0)" stroke-linejoin="miter" stroke-linecap="square" stroke-miterlimit="3"/><path d=" M 326 65 C 326 60.861 329.361 57.5 333.5 57.5 C 337.639 57.5 341 60.861 341 65 C 341 69.139 337.639 72.5 333.5 72.5 C 329.361 72.5 326 69.139 326 65 Z " fill="rgb(159,157,157)" vector-effect="non-scaling-stroke" stroke-width="1" stroke="rgb(159,157,157)" stroke-linejoin="miter" stroke-linecap="square" stroke-miterlimit="3"/><g id="Pendulum Unrealistic"><line x1="350.532" y1="171.971" x2="333.5" y2="65" vector-effect="non-scaling-stroke" stroke-width="1" stroke="rgb(0,0,0)" stroke-linejoin="miter" stroke-linecap="round" stroke-miterlimit="3"/><path d=" M 352.121 171.422 C 351.818 170.545 350.86 170.079 349.983 170.382 C 349.106 170.685 348.64 171.643 348.943 172.52 C 349.246 173.397 350.204 173.863 351.081 173.56 C 351.958 173.257 352.424 172.299 352.121 171.422 Z " fill="rgb(154,154,244)" vector-effect="non-scaling-stroke" stroke-width="1" stroke="rgb(0,0,0)" stroke-linejoin="miter" stroke-linecap="square" stroke-miterlimit="3"/></g><line x1="333.5" y1="70" x2="333.5" y2="180" vector-effect="non-scaling-stroke" stroke-width="1" stroke-dasharray="5,5,5,5" stroke="rgb(0,0,0)" stroke-opacity="0.5" stroke-linejoin="miter" stroke-linecap="square" stroke-miterlimit="3"/><g transform="matrix(1,0,0,1,335.357,138.376)"><text transform="matrix(1,0,0,1,0,17.104)" style="font-family:&quot;Cambria&quot;;font-weight:400;font-size:18px;font-style:normal;fill:#000000;stroke:none;">θ</text></g><g transform="matrix(1,0,0,1,0,190)"><text transform="matrix(1,0,0,1,0,13.303)" style="font-family:&quot;Cambria&quot;;font-weight:400;font-size:14px;font-style:normal;fill:#000000;stroke:none;">- Mass of bar not negligible</text><text transform="matrix(1,0,0,1,0,29.716)" style="font-family:&quot;Cambria&quot;;font-weight:400;font-size:14px;font-style:normal;fill:#000000;stroke:none;">- Angle θ is not small</text></g><g transform="matrix(1,0,0,1,250,190)"><text transform="matrix(1,0,0,1,0,13.303)" style="font-family:&quot;Cambria&quot;;font-weight:400;font-size:14px;font-style:normal;fill:#000000;stroke:none;">- Mass of bar negligible</text><text transform="matrix(1,0,0,1,0,29.716)" style="font-family:&quot;Cambria&quot;;font-weight:400;font-size:14px;font-style:normal;fill:#000000;stroke:none;">- Angle θ is small</text></g><path d=" M 333.7 160 Q 343.7 160 347.7 156" fill="none" vector-effect="non-scaling-stroke" stroke-width="1" stroke="rgb(0,0,0)" stroke-linejoin="miter" stroke-linecap="square" stroke-miterlimit="3"/></g></svg>